<?xml version="1.0" standalone="no"?><!DOCTYPE svg PUBLIC "-//W3C//DTD SVG 1.1//EN" "http://www.w3.org/Graphics/SVG/1.1/DTD/svg11.dtd"><svg t="1595297720931" class="icon" viewBox="0 0 1024 1024" version="1.1" xmlns="http://www.w3.org/2000/svg" p-id="5636" width="128" height="128" xmlns:xlink="http://www.w3.org/1999/xlink"><defs><style type="text/css"></style></defs><path d="M979.7 909.7h-48.8V363.6c0-21.5-17.6-39-39-39H599.4c-21.5 0-39 17.6-39 39v546.1h-58.5V90.5c0-21.5-17.6-39-39-39H131.2c-21.5 0-39 17.6-39 39v819.2H43.5c-16.2 0-29.3 13.1-29.3 29.3s13.1 29.3 29.3 29.3h936.2c16.2 0 29.3-13.1 29.3-29.3s-13.1-29.3-29.3-29.3zM618.9 490.4c0-16.2 13.1-29.3 29.3-29.3h195c16.2 0 29.3 13.1 29.3 29.3v19.5c0 16.2-13.1 29.3-29.3 29.3h-195c-16.2 0-29.3-13.1-29.3-29.3v-19.5z m0 253.5c0-16.2 13.1-29.3 29.3-29.3h195c16.2 0 29.3 13.1 29.3 29.3v19.5c0 16.2-13.1 29.3-29.3 29.3h-195c-16.2 0-29.3-13.1-29.3-29.3v-19.5zM170.2 236.8c0-16.2 13.1-29.3 29.3-29.3h195c16.2 0 29.3 13.1 29.3 29.3v19.5c0 16.2-13.1 29.3-29.3 29.3h-195c-16.2 0-29.3-13.1-29.3-29.3v-19.5z m0 253.6c0-16.2 13.1-29.3 29.3-29.3h195c16.2 0 29.3 13.1 29.3 29.3v19.5c0 16.2-13.1 29.3-29.3 29.3h-195c-16.2 0-29.3-13.1-29.3-29.3v-19.5z m0 253.5c0-16.2 13.1-29.3 29.3-29.3h195c16.2 0 29.3 13.1 29.3 29.3v19.5c0 16.2-13.1 29.3-29.3 29.3h-195c-16.2 0-29.3-13.1-29.3-29.3v-19.5z" p-id="5637"></path></svg>